<svg width="31" height="31" viewBox="0 0 31 31" fill="none" xmlns="http://www.w3.org/2000/svg">
<g clip-path="url(#clip0_844_3541)">
<path d="M28.6031 15.9299H26.013V0.867829C26.013 0.388498 25.6245 0 25.1452 0H8.13915C7.88854 0 7.65008 0.108382 7.48529 0.297183L1.74296 6.87658C1.60497 7.03472 1.52899 7.2374 1.52899 7.44722V30.1322C1.52899 30.6115 1.91749 31 2.39682 31H25.1452C25.6245 31 26.013 30.6115 26.013 30.1322V27.6465H28.6031C29.0825 27.6465 29.471 27.258 29.471 26.7787V16.7977C29.471 16.3184 29.0825 15.9299 28.6031 15.9299ZM27.7353 25.9109H9.11189V17.6655H27.7354L27.7353 25.9109ZM13.5797 15.8507V13.9718C14.1654 13.7264 14.5771 13.1481 14.5771 12.4732C14.5771 11.7984 14.1654 11.22 13.5797 10.9747V8.94577C13.9725 8.78127 14.2868 8.46692 14.4514 8.07399H18.8959C19.0604 8.46683 19.3748 8.78127 19.7677 8.94577V10.9747C19.1819 11.22 18.7702 11.7984 18.7702 12.4732C18.7702 13.148 19.1819 13.7264 19.7677 13.9718V15.8506C19.7677 15.8775 19.7699 15.9038 19.7733 15.9298H13.5742C13.5773 15.9039 13.5797 15.8776 13.5797 15.8507ZM7.27132 3.18194V6.5794H4.30604L7.27132 3.18194ZM24.2774 29.2643H3.26465V8.31505H8.13915C8.61848 8.31505 9.00698 7.92655 9.00698 7.44722V1.73566H24.2774V15.9299H21.0156C21.0189 15.9038 21.0212 15.8776 21.0212 15.8507V13.9718C21.607 13.7264 22.0186 13.148 22.0186 12.4732C22.0186 11.7984 21.607 11.22 21.0212 10.9747V8.94577C21.607 8.70047 22.0186 8.12201 22.0186 7.44722C22.0186 6.55018 21.2915 5.82303 20.3944 5.82303C19.7196 5.82303 19.1412 6.23467 18.8959 6.82046H14.4514C14.2061 6.23467 13.6277 5.82303 12.9529 5.82303C12.0559 5.82303 11.3287 6.55018 11.3287 7.44722C11.3287 8.12201 11.7403 8.70047 12.3261 8.94577V10.9747C11.7403 11.22 11.3287 11.7984 11.3287 12.4732C11.3287 13.148 11.7403 13.7264 12.3261 13.9718V15.8507C12.3261 15.8776 12.3283 15.9039 12.3317 15.9299H8.24406C7.76473 15.9299 7.37623 16.3184 7.37623 16.7977V26.7787C7.37623 27.258 7.76473 27.6465 8.24406 27.6465H24.2774V29.2643Z" fill="white"/>
<path d="M16.6078 19.2959L14.8126 24.3308H15.9206L16.2712 23.293H18.1294L18.4519 24.3308H19.5949L17.8208 19.2959H16.6078ZM16.5517 22.4235L17.1968 20.432H17.2108L17.835 22.4235H16.5517Z" fill="white"/>
<path d="M21.2364 19.2959H20.1845V24.3308H21.2364V19.2959Z" fill="white"/>
</g>
<defs>
<clipPath id="clip0_844_3541">
<rect width="31" height="31" fill="white"/>
</clipPath>
</defs>
</svg>
