<svg width="26" height="27" viewBox="0 0 26 27" fill="none" xmlns="http://www.w3.org/2000/svg">
<path d="M18.1793 10.333C19.7783 10.333 21.0879 10.3333 22.0885 10.4814C23.128 10.6354 24.0562 10.9784 24.6627 11.8496C25.268 12.7193 25.2709 13.7107 25.0601 14.7432C24.8568 15.7386 24.4096 16.9755 23.8629 18.4883L22.4176 22.4873C22.1357 23.2673 21.8976 23.9271 21.6422 24.4453C21.3706 24.9961 21.0399 25.4741 20.5279 25.835C20.0156 26.1959 19.4551 26.3453 18.8463 26.4141C18.2741 26.4786 17.5757 26.4785 16.7515 26.4785H8.43513C7.61087 26.4785 6.9126 26.4786 6.34041 26.4141C5.73149 26.3453 5.17116 26.196 4.65877 25.835C4.14675 25.4741 3.81604 24.9961 3.54451 24.4453C3.28904 23.9271 3.05095 23.2672 2.76912 22.4873L1.3238 18.4883C0.777054 16.9755 0.32982 15.7386 0.126539 14.7432C-0.084275 13.7107 -0.0813711 12.7193 0.524 11.8496C1.13049 10.9784 2.05871 10.6354 3.09822 10.4814C4.09876 10.3333 5.40833 10.333 7.0074 10.333H18.1793ZM7.08748 12.2705C5.38863 12.2705 4.22408 12.2728 3.3824 12.3975C2.56327 12.5188 2.27396 12.7261 2.11384 12.9561C1.95261 13.1877 1.85767 13.5361 2.02498 14.3555C2.19651 15.1955 2.59205 16.2993 3.17244 17.9053L4.57283 21.7803C4.87727 22.6227 5.0808 23.1791 5.28279 23.5889C5.47409 23.9768 5.62382 24.1444 5.77498 24.251C5.92563 24.3571 6.13161 24.4412 6.5572 24.4893C7.00794 24.5401 7.59655 24.541 8.48787 24.541H16.6988C17.5901 24.541 18.1787 24.5401 18.6295 24.4893C19.0555 24.4412 19.262 24.3572 19.4127 24.251C19.5638 24.1444 19.7136 23.9768 19.9049 23.5889C20.1068 23.1792 20.3094 22.6226 20.6138 21.7803L22.0142 17.9053C22.5946 16.2993 22.9902 15.1955 23.1617 14.3555C23.329 13.5361 23.2341 13.1877 23.0728 12.9561C22.9127 12.7262 22.6233 12.5188 21.8043 12.3975C20.9626 12.2729 19.7979 12.2705 18.0992 12.2705H7.08748ZM19.7261 5.16602C20.0027 5.166 20.2568 5.16611 20.4703 5.18067C20.6997 5.19632 20.9522 5.23266 21.2086 5.33887C21.7624 5.56828 22.2028 6.00773 22.4322 6.56152C22.5384 6.81788 22.5738 7.07038 22.5894 7.29981C22.604 7.51335 22.6041 7.76815 22.6041 8.04492V8.07227C22.6041 8.60729 22.1704 9.04101 21.6353 9.04102C21.1003 9.04102 20.6666 8.60729 20.6666 8.07227C20.6666 7.75829 20.6663 7.5711 20.6568 7.43164C20.6509 7.34543 20.6426 7.30833 20.6402 7.29883C20.6075 7.22306 20.5471 7.16247 20.4713 7.12988C20.4618 7.12747 20.4248 7.12015 20.3385 7.11426C20.199 7.10475 20.0119 7.10352 19.6978 7.10352H5.48982C5.17564 7.10352 4.98773 7.10474 4.84822 7.11426C4.76293 7.1201 4.72622 7.12741 4.71638 7.12988C4.64058 7.16245 4.58014 7.2231 4.54744 7.29883C4.54503 7.30832 4.53672 7.34543 4.53084 7.43164C4.52132 7.5711 4.52107 7.75829 4.52107 8.07227C4.52107 8.60718 4.08719 9.04084 3.55232 9.04102C3.01729 9.04102 2.58357 8.60729 2.58357 8.07227C2.58357 8.06313 2.58357 8.05401 2.58357 8.04492C2.58355 7.76815 2.58365 7.51335 2.59822 7.29981C2.61388 7.07038 2.64926 6.81788 2.75545 6.56152C2.98489 6.00777 3.42529 5.56825 3.97908 5.33887C4.23525 5.2328 4.4871 5.19633 4.71638 5.18067C4.92993 5.16609 5.18473 5.166 5.4615 5.16602H19.7261ZM16.4967 8.14443e-07C16.7734 -1.57383e-05 17.0282 7.90981e-05 17.2418 0.0146493C17.471 0.0303143 17.723 0.0658464 17.9791 0.171876C18.5329 0.401294 18.9733 0.841642 19.2027 1.39551C19.3087 1.65163 19.3443 1.90358 19.3599 2.13281C19.3745 2.34636 19.3746 2.60116 19.3746 2.87793V2.90625C19.3744 3.44113 18.9408 3.875 18.4058 3.875C17.8711 3.87483 17.4373 3.44102 17.4371 2.90625C17.4371 2.59208 17.4368 2.40416 17.4273 2.26465C17.4214 2.17889 17.4131 2.14241 17.4107 2.13281C17.3781 2.05683 17.3178 1.99652 17.2418 1.96387C17.2322 1.96144 17.1957 1.95314 17.1099 1.94727C16.9704 1.93775 16.7825 1.9375 16.4683 1.9375H8.71834C8.40436 1.9375 8.21717 1.93775 8.07771 1.94727C7.9915 1.95316 7.95439 1.96146 7.9449 1.96387C7.86916 1.99657 7.80852 2.057 7.77595 2.13281C7.77348 2.14264 7.76617 2.17935 7.76033 2.26465C7.75081 2.40416 7.74959 2.59208 7.74959 2.90625C7.74941 3.44113 7.31575 3.875 6.78084 3.875C6.24607 3.87483 5.81226 3.44102 5.81209 2.90625C5.81209 2.89689 5.81209 2.88724 5.81209 2.87793C5.81207 2.60116 5.81216 2.34636 5.82673 2.13281C5.8424 1.90353 5.87886 1.65168 5.98494 1.39551C6.21432 0.841718 6.65383 0.40132 7.20759 0.171876C7.46395 0.0656908 7.71645 0.0303093 7.94587 0.0146493C8.15942 7.90981e-05 8.41422 -1.57383e-05 8.69099 8.14443e-07H16.4967Z" fill="#5501DD"/>
</svg>
