<svg width="13" height="16" viewBox="0 0 13 16" fill="none" xmlns="http://www.w3.org/2000/svg">
<path d="M7.75037 8.99996H9.41536L10.0814 6.33329H7.75037V4.99996C7.75037 4.69774 7.76369 4.47996 7.79033 4.34663C7.84361 4.13329 7.95904 3.96885 8.13664 3.85329C8.34976 3.72885 8.665 3.66663 9.08236 3.66663H10.0814V1.42663C9.9304 1.40885 9.69064 1.39107 9.36208 1.37329C8.9536 1.34663 8.55844 1.33329 8.1766 1.33329C7.56389 1.33329 7.02443 1.45552 6.55823 1.69996C6.09203 1.9444 5.73461 2.29329 5.48597 2.74663C5.21957 3.23552 5.08637 3.80885 5.08637 4.46663V6.33329H3.08838V8.99996H5.08637V14.6666H7.75037V8.99996Z" fill="#9CA3AF"/>
</svg>
