<svg width="119" height="73" viewBox="0 0 119 73" fill="none" xmlns="http://www.w3.org/2000/svg">
<path d="M47.6565 72.9085C37.541 72.9085 17.3787 72.9425 11.8799 72.8914C5.00204 72.6273 0.0513909 67.4906 0 63.0014C0.0856514 58.3928 4.14553 54.8406 8.4281 53.5713C10.3724 52.9409 12.8049 52.975 14.8263 53.0091C16.308 53.0006 23.6998 53.0091 29.0701 53.0091C31.8195 52.9495 33.7552 53.1283 34.6118 52.9324C34.8858 52.8046 34.0122 51.5524 33.7124 51.0839C30.235 45.7427 28.3763 40.146 28.1365 34.2682C27.0145 14.6329 41.0784 -1.0753 61.4121 0.0576655C71.519 0.211 80.6151 4.54695 86.0454 12.4692C93.6941 23.1004 94.3108 40.3079 86.1397 51.5609C85.6771 52.3702 85.2318 52.9154 86.0883 53.0006C89.4544 53.0261 101.84 53.0006 104.94 53.0091C111.27 52.4213 117.899 55.6073 118.936 62.0984C119.749 68.3936 112.717 73.7348 105.394 72.917C101.634 72.8744 80.1783 72.9851 71.2791 72.8914C67.1165 72.8999 63.6647 72.1759 59.9988 71.7925C56.1445 72.2951 52.0161 72.9766 47.7678 72.917H47.665L47.6565 72.9085ZM60.0245 53.2987C60.0245 53.2987 60.0845 53.3158 60.1102 53.2987C63.9645 51.1606 67.0651 48.2046 69.4205 44.4224C71.7845 40.6231 72.9665 36.5853 72.9665 32.309C72.9665 27.6067 71.6731 23.9097 69.095 21.2348C66.731 18.8837 63.7161 17.7081 60.0588 17.7081C56.076 17.7081 52.9583 18.9944 50.7057 21.5585C48.4445 24.1226 47.3139 27.7089 47.3139 32.309C47.3139 36.5853 48.4702 40.6486 50.7827 44.499C53.0868 48.3324 56.1617 51.2713 60.016 53.2987H60.0245Z" fill="white"/>
</svg>
