<svg width="16" height="16" viewBox="0 0 16 16" fill="none" xmlns="http://www.w3.org/2000/svg">
<path d="M8.84398 1.33329C9.51954 1.33329 10.0084 1.33774 10.3106 1.34663L10.9106 1.37329C11.5329 1.39996 12.0706 1.50218 12.524 1.67996C12.9773 1.85774 13.3729 2.11552 13.7106 2.45329C14.0484 2.79107 14.3062 3.18663 14.484 3.63996C14.6618 4.09329 14.764 4.63107 14.7906 5.25329L14.8173 5.85329C14.8262 6.1644 14.8306 6.65329 14.8306 7.31996V8.67996C14.8306 9.35552 14.8262 9.8444 14.8173 10.1466L14.7906 10.7466C14.764 11.3688 14.6618 11.9066 14.484 12.36C14.3062 12.8133 14.0484 13.2088 13.7106 13.5466C13.3729 13.8844 12.9773 14.1422 12.524 14.32C12.0706 14.4977 11.5329 14.6 10.9106 14.6266L10.3106 14.6533C9.99954 14.6622 9.51065 14.6666 8.84398 14.6666H7.48398C6.80843 14.6666 6.31954 14.6622 6.01731 14.6533L5.41731 14.6266C4.79509 14.6 4.25731 14.4977 3.80398 14.32C3.35065 14.1422 2.95509 13.8844 2.61731 13.5466C2.27954 13.2088 2.02176 12.8133 1.84398 12.36C1.6662 11.9066 1.56398 11.3688 1.53731 10.7466L1.51065 10.1466C1.50176 9.83552 1.49731 9.34663 1.49731 8.67996V7.31996C1.49731 6.6444 1.50176 6.15552 1.51065 5.85329L1.53731 5.25329C1.56398 4.63107 1.6662 4.09329 1.84398 3.63996C2.02176 3.18663 2.27954 2.79107 2.61731 2.45329C2.95509 2.11552 3.35065 1.85774 3.80398 1.67996C4.25731 1.50218 4.79509 1.39996 5.41731 1.37329L6.01731 1.34663C6.32843 1.33774 6.81731 1.33329 7.48398 1.33329H8.84398ZM8.16398 4.66663C7.55954 4.66663 7.00176 4.81552 6.49065 5.11329C5.97954 5.41107 5.57509 5.81552 5.27731 6.32663C4.97954 6.83774 4.83065 7.39552 4.83065 7.99996C4.83065 8.6044 4.97954 9.16218 5.27731 9.67329C5.57509 10.1844 5.97954 10.5888 6.49065 10.8866C7.00176 11.1844 7.55954 11.3333 8.16398 11.3333C8.76842 11.3333 9.3262 11.1844 9.83731 10.8866C10.3484 10.5888 10.7529 10.1844 11.0506 9.67329C11.3484 9.16218 11.4973 8.6044 11.4973 7.99996C11.4973 7.39552 11.3484 6.83774 11.0506 6.32663C10.7529 5.81552 10.3484 5.41107 9.83731 5.11329C9.3262 4.81552 8.76842 4.66663 8.16398 4.66663ZM8.16398 5.99996C8.52843 5.99996 8.86398 6.08885 9.17065 6.26663C9.47731 6.4444 9.71954 6.68663 9.89731 6.99329C10.0751 7.29996 10.164 7.63552 10.164 7.99996C10.164 8.3644 10.0751 8.69996 9.89731 9.00663C9.71954 9.31329 9.47731 9.55552 9.17065 9.73329C8.86398 9.91107 8.52843 9.99996 8.16398 9.99996C7.79954 9.99996 7.46398 9.91107 7.15731 9.73329C6.85065 9.55552 6.60843 9.31329 6.43065 9.00663C6.25287 8.69996 6.16398 8.3644 6.16398 7.99996C6.16398 7.63552 6.25287 7.29996 6.43065 6.99329C6.60843 6.68663 6.85065 6.4444 7.15731 6.26663C7.46398 6.08885 7.79954 5.99996 8.16398 5.99996ZM11.6573 3.66663C11.4351 3.66663 11.2418 3.74885 11.0773 3.91329C10.9129 4.07774 10.8306 4.27329 10.8306 4.49996C10.8306 4.72663 10.9129 4.92218 11.0773 5.08663C11.2418 5.25107 11.4373 5.33329 11.664 5.33329C11.8906 5.33329 12.0862 5.25107 12.2506 5.08663C12.4151 4.92218 12.4973 4.72663 12.4973 4.49996C12.4973 4.27329 12.4151 4.07774 12.2506 3.91329C12.0862 3.74885 11.8884 3.66663 11.6573 3.66663Z" fill="#9CA3AF"/>
</svg>
