<svg width="16" height="16" viewBox="0 0 16 16" fill="none" xmlns="http://www.w3.org/2000/svg">
<path d="M4.32935 3.33333C4.32047 3.60889 4.2405 3.85778 4.08945 4.08C3.93839 4.30222 3.73847 4.46444 3.48968 4.56667C3.24089 4.66889 2.98322 4.69333 2.71666 4.64C2.4501 4.58667 2.2213 4.46222 2.03026 4.26667C1.83923 4.07111 1.7215 3.84 1.67707 3.57333C1.63264 3.30667 1.66374 3.04889 1.77037 2.8C1.87699 2.55111 2.04581 2.35333 2.27683 2.20667C2.50785 2.06 2.76108 1.99111 3.03653 2C3.39195 2.00889 3.69627 2.14222 3.9495 2.4C4.20273 2.65778 4.32935 2.96889 4.32935 3.33333ZM4.36933 5.65333H1.70373V14H4.36933V5.65333ZM8.581 5.65333H5.92872V14H8.55434V9.62667C8.55434 9.15556 8.66096 8.75556 8.87421 8.42667C9.07858 8.12444 9.34069 7.91556 9.66057 7.8C9.98044 7.68444 10.3003 7.67556 10.6202 7.77333C10.9401 7.87111 11.1977 8.06667 11.3932 8.36C11.6153 8.69778 11.7264 9.12 11.7264 9.62667V14H14.3654V8.72C14.3654 7.93778 14.1965 7.27556 13.8589 6.73333C13.5657 6.26222 13.157 5.90667 12.6327 5.66667C12.1529 5.46222 11.6331 5.37333 11.0733 5.4C10.5313 5.42667 10.0293 5.56222 9.56727 5.80667C9.10523 6.05111 8.76759 6.37333 8.55434 6.77333L8.581 5.65333Z" fill="#9CA3AF"/>
</svg>
